<svg width="155" height="50" viewBox="0 0 155 50" fill="none" xmlns="http://www.w3.org/2000/svg">
<path d="M20.0586 34.1719L1.26953 26.3398V22.375L20.0586 14.5234V19.6797L8.45703 24.3477L20.0586 28.9961V34.1719ZM36.9141 8.27344L27.5391 41.1055H21.5625L30.9961 8.27344H36.9141ZM52.9883 8.87891L57.6953 40.5H49.2773L48.8672 34.8164H45.918L45.4297 40.5H36.9141L41.0938 8.87891H52.9883ZM48.6328 29.2109C48.2161 25.6302 47.7995 21.2096 47.3828 15.9492C46.5495 21.9909 46.0286 26.4115 45.8203 29.2109H48.6328ZM131.621 14.5234L150.41 22.3359V26.3203L131.621 34.1719V29.0156L143.223 24.3477L131.621 19.6992V14.5234Z" fill="#FF8303"/>
<path d="M66.9922 8.87891V40.5H58.8672V8.87891H66.9922ZM77.8711 14.582L77.7344 16.8672C78.4375 15.9427 79.2122 15.2526 80.0586 14.7969C80.9049 14.3411 81.8294 14.1133 82.832 14.1133C84.056 14.1133 85.1107 14.4453 85.9961 15.1094C86.8945 15.7604 87.4544 16.5156 87.6758 17.375C87.8971 18.2344 88.0078 19.6927 88.0078 21.75V32.668C88.0078 35.0247 87.8646 36.7044 87.5781 37.707C87.3047 38.6966 86.7318 39.4909 85.8594 40.0898C85 40.6758 83.9583 40.9688 82.7344 40.9688C81.7578 40.9688 80.8529 40.7409 80.0195 40.2852C79.1862 39.8294 78.4245 39.1523 77.7344 38.2539V44.1914H69.8438V14.582H77.8711ZM80.1172 22.1211C80.1172 20.5195 80.0586 19.5495 79.9414 19.2109C79.8242 18.8724 79.4987 18.7031 78.9648 18.7031C78.444 18.7031 78.1055 18.8984 77.9492 19.2891C77.806 19.6797 77.7344 20.6237 77.7344 22.1211V32.8633C77.7344 34.4258 77.8125 35.4023 77.9688 35.793C78.125 36.1836 78.4635 36.3789 78.9844 36.3789C79.4922 36.3789 79.8047 36.2031 79.9219 35.8516C80.0521 35.487 80.1172 34.6146 80.1172 33.2344V22.1211ZM98.5156 8.87891V15.9883C99.1927 15.3633 99.9219 14.8945 100.703 14.582C101.497 14.2695 102.344 14.1133 103.242 14.1133C104.622 14.1133 105.794 14.4648 106.758 15.168C107.734 15.8711 108.327 16.6849 108.535 17.6094C108.757 18.5208 108.867 20.194 108.867 22.6289V40.5H100.977V22.2578C100.977 20.7474 100.898 19.7773 100.742 19.3477C100.599 18.918 100.267 18.7031 99.7461 18.7031C99.2643 18.7031 98.9388 18.9245 98.7695 19.3672C98.6003 19.8099 98.5156 20.6888 98.5156 22.0039V40.5H90.625V8.87891H98.5156ZM118.652 24.6211H111.25V22.8828C111.25 20.8776 111.478 19.3346 111.934 18.2539C112.402 17.1602 113.333 16.1966 114.727 15.3633C116.12 14.5299 117.93 14.1133 120.156 14.1133C122.826 14.1133 124.837 14.5885 126.191 15.5391C127.546 16.4766 128.359 17.6354 128.633 19.0156C128.906 20.3828 129.043 23.2083 129.043 27.4922V40.5H121.367V38.1953C120.885 39.1198 120.26 39.8164 119.492 40.2852C118.737 40.7409 117.832 40.9688 116.777 40.9688C115.397 40.9688 114.128 40.5846 112.969 39.8164C111.823 39.0352 111.25 37.3359 111.25 34.7188V32.5898C111.25 30.6497 111.556 29.3281 112.168 28.625C112.78 27.9219 114.297 27.1016 116.719 26.1641C119.31 25.1484 120.697 24.4648 120.879 24.1133C121.061 23.7617 121.152 23.0456 121.152 21.9648C121.152 20.6107 121.048 19.7318 120.84 19.3281C120.645 18.9115 120.312 18.7031 119.844 18.7031C119.31 18.7031 118.978 18.8789 118.848 19.2305C118.717 19.569 118.652 20.4609 118.652 21.9062V24.6211ZM121.152 28.1758C119.889 29.1003 119.154 29.875 118.945 30.5C118.75 31.125 118.652 32.0234 118.652 33.1953C118.652 34.5365 118.737 35.4023 118.906 35.793C119.089 36.1836 119.44 36.3789 119.961 36.3789C120.456 36.3789 120.775 36.2292 120.918 35.9297C121.074 35.6172 121.152 34.8099 121.152 33.5078V28.1758Z" fill="#F0E3CA"/>
</svg>
